<?xml version="1.0" encoding="UTF-8" standalone="no"?>
<!-- Created with Inkscape (http://www.inkscape.org/) -->

<svg
   version="1.1"
   id="svg1"
   width="353"
   height="347"
   viewBox="0 0 353 347"
   sodipodi:docname="logotipo.svg"
   inkscape:version="1.3.2 (091e20e, 2023-11-25, custom)"
   xml:space="preserve"
   xmlns:inkscape="http://www.inkscape.org/namespaces/inkscape"
   xmlns:sodipodi="http://sodipodi.sourceforge.net/DTD/sodipodi-0.dtd"
   xmlns="http://www.w3.org/2000/svg"
   xmlns:svg="http://www.w3.org/2000/svg"><defs
     id="defs1"><filter
       style="color-interpolation-filters:sRGB;"
       inkscape:label="Drop Shadow"
       id="filter13"
       x="-0.012268602"
       y="-0.0055530088"
       width="1.0183666"
       height="1.0116084"><feFlood
         result="flood"
         in="SourceGraphic"
         flood-opacity="0.498039"
         flood-color="rgb(0,0,0)"
         id="feFlood12" /><feGaussianBlur
         result="blur"
         in="SourceGraphic"
         stdDeviation="0.700000"
         id="feGaussianBlur12" /><feOffset
         result="offset"
         in="blur"
         dx="-1.700000"
         dy="0.151976"
         id="feOffset12" /><feComposite
         result="comp1"
         operator="in"
         in="flood"
         in2="offset"
         id="feComposite12" /><feComposite
         result="comp2"
         operator="over"
         in="SourceGraphic"
         in2="comp1"
         id="feComposite13" /></filter></defs><sodipodi:namedview
     id="namedview1"
     pagecolor="#030303"
     bordercolor="#000000"
     borderopacity="0.24705882"
     inkscape:showpageshadow="2"
     inkscape:pageopacity="0.0"
     inkscape:pagecheckerboard="0"
     inkscape:deskcolor="#d1d1d1"
     showgrid="false"
     inkscape:zoom="0.51046181"
     inkscape:cx="340.86781"
     inkscape:cy="130.27419"
     inkscape:window-width="1366"
     inkscape:window-height="697"
     inkscape:window-x="-8"
     inkscape:window-y="-8"
     inkscape:window-maximized="1"
     inkscape:current-layer="g1" /><g
     inkscape:groupmode="layer"
     inkscape:label="Image"
     id="g1"><g
       id="g12"
       transform="translate(-407.47417,82.278437)"
       style="filter:url(#filter13)"><g
         id="g8"
         transform="translate(-119.49963,-489.75261)"><path
           style="fill:#d59b47;fill-opacity:1"
           d="m 673.25449,728.5018 c -12.30128,-2.20277 -27.76878,-7.3564 -39.30362,-13.09561 -8.47076,-4.21466 -30.58441,-18.50664 -30.58441,-19.76661 0,-1.18226 11.35951,0.0536 13,1.41434 0.825,0.68431 5.37619,3.51165 10.11376,6.28296 23.71166,13.87051 47.11699,20.22353 74.53687,20.23192 27.68776,0.008 51.72805,-6.66307 74.84937,-20.77182 12.93754,-7.89455 13.44136,-8.09814 18.2351,-7.36864 l 4.2351,0.64448 -8.7351,6.2522 c -10.29402,7.36802 -31.43288,18.11448 -42.7351,21.72545 -20.7347,6.62457 -51.19079,8.46626 -73.61197,4.45133 z m -84.38803,-50.55019 c -1.1,-0.21916 -4.36771,-0.87749 -7.26159,-1.46294 -2.89387,-0.58546 -6.60637,-2.19603 -8.25,-3.57905 l -2.98841,-2.51459 v -63.12354 -63.12354 l -2.75,-2.2516 -2.75,-2.2516 28.25,-0.036 28.25,-0.036 v 59.34087 59.34087 l -5.25,1.13124 c -2.8875,0.62218 -8.2875,1.67157 -12,2.33198 -3.7125,0.66041 -6.75,1.56851 -6.75,2.018 0,0.4495 21.0375,0.93421 46.75,1.07715 l 46.75,0.25989 v 6.5 6.5 l -50,0.13864 c -27.5,0.0763 -50.9,-0.0407 -52,-0.25985 z m 139,-0.34276 c -6.18165,-0.96049 -12.2508,-3.45329 -15.23635,-6.25807 l -2.26365,-2.12659 v -60.7531 -60.75311 l 2.55658,-2.01101 c 1.40612,-1.10605 4.89362,-2.82621 7.75,-3.82258 4.7429,-1.65442 9.4875,-1.81157 54.69342,-1.81157 45.08603,0 49.95991,0.16048 54.65757,1.79967 2.83666,0.98981 6.32416,2.88082 7.75,4.20225 2.45849,2.27845 2.59243,2.92171 2.59243,12.45033 0,5.52626 -0.34621,10.04775 -0.76935,10.04775 -0.42315,0 -11.33565,2.02112 -24.25,4.49137 -12.91436,2.47026 -24.04315,4.49526 -24.73065,4.5 -0.93103,0.006 -1.25,-3.05343 -1.25,-11.99137 v -12 h -26 c -14.6114,0 -26,0.39159 -26,0.894 0,0.49169 5.39605,1.88867 11.99122,3.10438 l 11.99121,2.21039 0.25879,52.64561 0.25878,52.64562 h 13.5 13.5 l 0.28973,-7.61992 0.28972,-7.61993 5.71028,-1.17389 c 11.03393,-2.26831 42.62799,-8.08626 43.912,-8.08626 1.00486,0 1.29827,3.28729 1.29827,14.54545 0,13.98666 -0.0914,14.6369 -2.38024,16.9257 -1.30913,1.30913 -4.79663,3.17892 -7.75,4.15509 -4.78828,1.58266 -10.35097,1.79715 -51.36976,1.98077 -25.3,0.11325 -48.25,-0.14369 -51,-0.57098 z M 606.03974,460.20468 c 10.55378,-8.84162 33.54102,-21.04407 48.82672,-25.91897 17.29591,-5.51599 22.45573,-6.21289 46,-6.21289 23.37127,0 27.91963,0.60209 46,6.08927 10.85904,3.29559 34.28707,15.18703 43.70814,22.18507 l 7.70813,5.72566 -5.27926,0.29457 c -4.90841,0.27387 -5.90647,-0.0996 -14.20813,-5.31652 -16.23502,-10.20241 -30.78536,-16.12552 -49.55413,-20.17233 -11.87755,-2.56097 -44.7567,-2.56866 -56.87475,-0.0133 -10.71118,2.25869 -22.61556,6.11273 -31,10.03625 -7.64179,3.576 -24.75202,13.46108 -25.55841,14.76585 -0.30779,0.49801 -3.26759,0.90548 -6.57733,0.90548 h -6.01771 z"
           id="path2"
           sodipodi:nodetypes="ssssscsscsssssscccccccccsssscccssssscccsssssssscscssscccccccsssssssssssscssssssscs" /><path
           style="fill:#f9f9f9;fill-opacity:1"
           d="m 576.86481,526.11813 c -11.07589,-4.07433 -14.5565,-18.33911 -7.87749,-32.28478 4.63212,-9.67178 14.51592,-14.93478 26.42896,-14.07307 7.44072,0.53822 9.13707,1.8429 7.62042,5.86097 -0.80925,2.14393 -1.55339,2.78226 -2.64866,2.27203 -0.83778,-0.39028 -4.09248,-0.88831 -7.23268,-1.10674 -10.07237,-0.70063 -16.79671,5.03292 -18.83516,16.05991 -2.01654,10.90844 2.29845,17.70372 11.24756,17.71275 5.44212,0.005 8.49425,-1.73228 9.19484,-5.2352 1.10667,-5.53334 0.77417,-6.60843 -2.14779,-6.94464 -2.71161,-0.312 -3.09229,-1.53414 -1.73388,-5.56642 0.51473,-1.52789 13.48388,-1.76878 13.48388,-0.25044 0,4.85405 -3.45933,19.61583 -4.83208,20.61961 -4.7428,3.46801 -16.93041,5.04659 -22.66792,2.93602 z m 111.4416,0.54488 c -4.96308,-1.59969 -7.12609,-3.29737 -8.55335,-6.71328 -1.31868,-3.15605 -1.18094,-4.88643 1.60547,-20.16951 1.67634,-9.1945 3.24941,-17.27978 3.4957,-17.96728 0.49227,-1.3741 7.51058,-1.75981 7.51058,-0.41276 0,0.46047 -1.13947,7.00586 -2.53215,14.54531 -3.33437,18.05094 -3.38973,20.45254 -0.52492,22.77232 4.25205,3.4431 11.95053,1.88563 14.43587,-2.92049 0.81103,-1.56835 2.84334,-9.97344 4.51624,-18.67797 1.67291,-8.70454 3.23575,-16.02053 3.47299,-16.25777 0.23723,-0.23723 1.97093,-0.28897 3.85266,-0.11498 l 3.42134,0.31634 -3.23662,17.72711 c -3.55854,19.49028 -4.85446,22.43085 -11.34455,25.74184 -4.40246,2.24597 -12.45847,3.31105 -16.11926,2.13112 z m 107.02029,-1.35007 c -6.54484,-3.30037 -9.24068,-8.95783 -8.69634,-18.25 0.95222,-16.25474 10.94308,-27.42203 24.58332,-27.47804 6.79916,-0.0279 11.51077,2.21093 14.38311,6.8345 1.90077,3.05964 2.24628,4.94991 2.15599,11.79531 -0.1908,14.46594 -6.67221,24.52282 -18.00181,27.93253 -6.46203,1.94478 -9.23074,1.78464 -14.42427,-0.8343 z m 17.24412,-8.38573 c 5.88487,-5.51929 9.20492,-17.55908 6.82804,-24.76112 -1.45873,-4.41999 -3.49075,-5.60315 -9.62314,-5.60315 -4.20689,0 -5.13486,0.4355 -8.5276,4.00201 -3.99398,4.19855 -6.88331,11.63315 -6.88331,17.71161 0,4.27141 2.27718,9.75425 4.65631,11.21114 3.17867,1.94652 10.1485,0.62942 13.5497,-2.56049 z m -190.20601,9.34761 c 0,-0.33001 5.26555,-28.72485 7.27146,-39.21188 l 1.33893,-7 6.44481,-0.31501 c 9.68254,-0.47327 14.62377,0.55629 18.25825,3.8043 2.69704,2.41026 3.17239,3.51312 3.09434,7.17921 -0.14745,6.92666 -4.46466,12.98423 -10.77308,15.11596 -0.4759,0.16082 1.4407,4.88761 4.25912,10.50397 l 5.12441,10.21157 H 653.02 648.65696 l -4.30112,-9.51986 c -3.36814,-7.45484 -4.82567,-9.65152 -6.71929,-10.12679 -3.23217,-0.81122 -3.79957,0.0273 -5.17441,7.64665 -2.34831,13.01441 -1.82616,12 -6.17678,12 -2.1563,0 -3.92055,-0.12965 -3.92055,-0.28812 z m 24.92256,-27.17183 c 2.56244,-1.32509 4.02733,-3.95298 4.06379,-7.29005 0.0317,-2.90641 -3.93135,-5.25 -8.87794,-5.25 -5.41512,0 -5.29067,-0.1731 -6.65019,9.25 l -0.6853,4.75 h 4.6632 c 2.56476,0 5.93366,-0.65698 7.48644,-1.45995 z m 86.39186,25.20995 c 0.29218,-1.2375 2.20378,-11.25 4.248,-22.25 2.04422,-11 4.15905,-20.5625 4.69962,-21.25 0.63587,-0.8087 3.67565,-1.24224 8.61041,-1.22804 13.7642,0.0396 20.0358,5.22771 18.86596,15.60654 -1.00719,8.93577 -8.28076,14.30997 -19.42102,14.34954 -6.99161,0.0248 -6.54357,-0.52458 -8.37665,10.27196 l -1.14605,6.75 h -4.00575 c -3.64485,0 -3.95789,-0.20272 -3.47452,-2.25 z m 24.59256,-22.92398 c 4.23796,-2.64665 5.36513,-9.55392 2.09302,-12.82602 -1.45899,-1.45899 -3.33333,-2 -6.9291,-2 h -4.9291 l -1.11026,5.75 c -0.61065,3.1625 -1.31678,6.72526 -1.56918,7.91724 -0.25241,1.19198 0.10281,2.41747 0.78936,2.72331 1.87689,0.8361 9.43603,-0.17859 11.65526,-1.56453 z"
           id="path3"
           sodipodi:nodetypes="ssssssscssssssssssssssssscssssssssssssssssssscssssscccssssssssscssssssssscssssscssss" /></g></g></g></svg>
